<svg width="16" height="17" viewBox="0 0 16 17" fill="none" xmlns="http://www.w3.org/2000/svg">
    <path d="M16 11.25C16 12.7687 15.1567 14 13.5 14H2.5C0.84325 14 0 12.7687 0 11.25V5.75C0 4.23125 0.84325 3 2.5 3H13.5C15.1567 3 16 4.23125 16 5.75V11.25Z" fill="#128807"/>
    <path d="M14.285 8.6975L8.03755 13.0875L1.78979 8.6975L8.03755 4.3075L14.285 8.6975Z" fill="#F9CB38"/>
    <path fill-rule="evenodd" clip-rule="evenodd" d="M10.5024 9.462C10.2179 10.4287 9.32766 11.1647 8.31966 11.2647C6.97291 11.3995 5.79466 10.5435 5.50816 9.22025C5.42335 8.83139 5.43416 8.42776 5.53966 8.044C5.57891 8.0015 5.63316 7.99125 5.68716 7.98375C6.08102 7.9287 6.47925 7.91137 6.87641 7.932C7.30016 7.956 7.72041 8.01475 8.12891 8.13025C8.54816 8.249 8.95415 8.404 9.3374 8.61C9.62589 8.76312 9.90139 8.93954 10.1612 9.1375C10.2492 9.20575 10.3389 9.27275 10.4234 9.3455C10.4612 9.378 10.4909 9.413 10.5024 9.462Z" fill="#002776"/>
    <path fill-rule="evenodd" clip-rule="evenodd" d="M5.68091 7.65272C6.00366 6.93147 6.54791 6.45122 7.30016 6.22572C8.81516 5.77147 10.3694 6.77272 10.5947 8.33422C10.6297 8.57547 10.6312 8.81747 10.5942 9.05922C10.5559 9.07347 10.5274 9.05322 10.5012 9.03147C10.2266 8.80711 9.93364 8.60624 9.62541 8.43097C9.38807 8.29627 9.14145 8.17864 8.88741 8.07897C8.84241 8.06122 8.78591 8.05197 8.77041 7.99172C8.78666 7.96272 8.80716 7.93747 8.83166 7.91397C8.84041 7.90497 8.85316 7.89622 8.84141 7.88122C8.83741 7.87647 8.82916 7.87647 8.82216 7.87722C8.80341 7.87922 8.80591 7.89222 8.80666 7.90597C8.80816 7.95072 8.78216 7.97947 8.74791 8.00247C8.68716 8.01622 8.62891 7.99797 8.57966 7.97172C8.43866 7.89772 8.28266 7.87247 8.13341 7.83122C7.90066 7.76797 7.66166 7.73222 7.42316 7.69497C7.23281 7.66463 7.0412 7.64278 6.84891 7.62947C6.67391 7.61722 6.49566 7.61897 6.31941 7.63097C6.12716 7.64447 5.93441 7.65797 5.74316 7.68097C5.73116 7.68282 5.71888 7.68113 5.70783 7.67611C5.69677 7.67109 5.68742 7.66297 5.68091 7.65272Z" fill="#002776"/>
    <path fill-rule="evenodd" clip-rule="evenodd" d="M8.77231 7.97623C8.77131 8.00673 8.79856 8.00273 8.81506 8.00923C9.46067 8.26034 10.061 8.61498 10.5926 9.05923C10.5773 9.19641 10.547 9.33147 10.5021 9.46198C10.1893 9.20248 9.86906 8.95523 9.51481 8.75323C8.39506 8.11548 7.19606 7.86273 5.91431 7.99823C5.78931 8.01098 5.66431 8.02798 5.53931 8.04323C5.57156 7.90798 5.61256 7.77523 5.67981 7.65223C6.61556 7.52598 7.53506 7.59773 8.43731 7.87698C8.54931 7.91173 8.65606 7.96773 8.77556 7.97823L8.77231 7.97548" fill="#FEFEFE"/>
    <path fill-rule="evenodd" clip-rule="evenodd" d="M9.93738 9.58747C9.86213 9.57947 9.94388 9.67172 9.86788 9.66972C9.80163 9.66872 9.79812 9.61572 9.76562 9.58622C9.79063 9.56022 9.83488 9.55497 9.84888 9.51447C9.85838 9.55722 9.89863 9.56622 9.93738 9.58747Z" fill="#D9DFEA"/>
    <path fill-rule="evenodd" clip-rule="evenodd" d="M7.09852 10.0499C7.02777 10.0582 7.08702 10.1352 7.02777 10.1364C6.96802 10.1377 6.93727 10.0934 6.92527 10.0477C6.92102 10.0347 6.97852 10.0057 7.00677 9.98419C7.01027 10.0294 7.05727 10.0274 7.09852 10.0499Z" fill="#E9ECF3"/>
    <path fill-rule="evenodd" clip-rule="evenodd" d="M8.035 9.9107C7.93675 9.9742 8.016 9.8307 7.95825 9.8447C7.977 9.8147 8.03 9.8217 8.0335 9.7757C8.0585 9.8017 8.07975 9.8317 8.1195 9.8372C8.06275 9.82945 8.1245 9.95545 8.035 9.9107Z" fill="#EDEFF5"/>
    <path fill-rule="evenodd" clip-rule="evenodd" d="M6.00482 8.22622C5.98132 8.27097 5.96357 8.32097 5.89232 8.29097C5.85582 8.27572 5.89482 8.22572 5.85107 8.22097L5.93207 8.14972L5.94957 8.18447C5.95607 8.21422 6.01532 8.17472 6.00482 8.22622Z" fill="#F0F2F6"/>
    <path fill-rule="evenodd" clip-rule="evenodd" d="M6.23172 9.31247C6.19447 9.32422 6.22122 9.42222 6.14122 9.37947C6.13322 9.37547 6.09822 9.39472 6.10472 9.38347C6.12572 9.34247 6.07872 9.32247 6.08597 9.28972C6.12972 9.30872 6.12722 9.22872 6.17197 9.25022C6.17522 9.25272 6.17522 9.26272 6.17747 9.26922C6.18222 9.30022 6.24272 9.26147 6.23172 9.31247Z" fill="#ECEFF4"/>
    <path fill-rule="evenodd" clip-rule="evenodd" d="M5.8384 9.602C5.76165 9.62875 5.8189 9.536 5.7749 9.53675C5.7954 9.5195 5.8184 9.48725 5.8389 9.4885C5.8634 9.48975 5.8859 9.52 5.9084 9.53725C5.8749 9.5485 5.91015 9.63925 5.8384 9.602Z" fill="#D9DFEA"/>
    <path fill-rule="evenodd" clip-rule="evenodd" d="M8.80487 10.4867C8.72362 10.5237 8.80262 10.4145 8.74837 10.4287C8.74287 10.387 8.81062 10.4122 8.80212 10.3682L8.87536 10.427C8.84561 10.4405 8.87537 10.5255 8.80487 10.4867Z" fill="#D8DEEA"/>
    <path fill-rule="evenodd" clip-rule="evenodd" d="M9.32495 10.4264C9.2577 10.4544 9.29895 10.3639 9.2627 10.3549C9.2872 10.3392 9.31295 10.3224 9.33695 10.3062C9.33895 10.3432 9.3897 10.3297 9.3952 10.3624C9.35745 10.3647 9.3967 10.4462 9.32495 10.4264ZM9.79245 10.0899C9.71595 10.1287 9.77245 10.0269 9.7287 10.0312C9.73745 9.9987 9.7877 10.0109 9.7907 9.97345L9.86245 10.0272C9.8187 10.0259 9.87245 10.1332 9.79245 10.0899Z" fill="#DCE1EC"/>
    <path fill-rule="evenodd" clip-rule="evenodd" d="M6.69561 9.62321C6.61561 9.66846 6.66786 9.56721 6.63086 9.56521C6.63461 9.52796 6.69111 9.54396 6.69361 9.50446C6.70111 9.54096 6.74961 9.53045 6.76011 9.5632C6.71236 9.5562 6.78036 9.67096 6.69561 9.62321Z" fill="#D4DAE7"/>
    <path fill-rule="evenodd" clip-rule="evenodd" d="M7.0198 8.86371C6.97455 8.86071 7.03255 8.78945 6.97705 8.79395C6.98655 8.75395 7.0293 8.76221 7.0528 8.74146C7.0648 8.76671 7.0988 8.77246 7.10055 8.80871C7.10455 8.87496 7.0458 8.84071 7.0198 8.86371Z" fill="#F2F4F7"/>
    <path fill-rule="evenodd" clip-rule="evenodd" d="M8.33745 9.3917C8.2682 9.43145 8.30471 9.3427 8.27271 9.33295L8.33745 9.2782C8.33895 9.3152 8.4097 9.30695 8.3897 9.33545C8.3777 9.35245 8.41645 9.4302 8.33745 9.3917Z" fill="#E6E9F1"/>
    <path fill-rule="evenodd" clip-rule="evenodd" d="M8.02751 9.16898C7.94851 9.17698 8.03001 9.10523 7.97876 9.10698C7.99876 9.08823 8.01801 9.05623 8.04051 9.05423C8.06001 9.05223 8.08251 9.08398 8.10376 9.10148C8.07601 9.12823 8.08026 9.19723 8.02751 9.16898Z" fill="#EAEDF3"/>
    <path fill-rule="evenodd" clip-rule="evenodd" d="M9.94552 9.75244C9.96177 9.79544 9.99377 9.80119 10.0188 9.81644C9.99327 9.84519 9.98327 9.88919 9.93027 9.88919C9.87602 9.88969 9.91277 9.84844 9.90052 9.82919C9.87027 9.78119 9.98202 9.82169 9.94552 9.75244Z" fill="#E4E8F0"/>
    <path fill-rule="evenodd" clip-rule="evenodd" d="M9.37945 10.6235C9.36045 10.6517 9.37345 10.6787 9.32295 10.6797C9.2652 10.6807 9.2837 10.6385 9.2812 10.6255C9.27645 10.604 9.30945 10.5835 9.32845 10.5877C9.34495 10.5907 9.37695 10.6 9.37945 10.6235Z" fill="#CED5E4"/>
    <path fill-rule="evenodd" clip-rule="evenodd" d="M6.67838 9.82249C6.63713 9.82724 6.67138 9.88124 6.61913 9.87949C6.57138 9.87799 6.57838 9.84574 6.57313 9.82624C6.56488 9.79899 6.60513 9.79974 6.61413 9.77924C6.63313 9.79249 6.65238 9.80574 6.67838 9.82249Z" fill="#DAE0EB"/>
    <path fill-rule="evenodd" clip-rule="evenodd" d="M9.26733 10.1079C9.285 10.0949 9.30308 10.0823 9.32158 10.0699C9.32308 10.0977 9.38283 10.0817 9.36283 10.1172C9.35458 10.1314 9.37483 10.1704 9.32308 10.1669C9.27658 10.1637 9.28758 10.1312 9.26733 10.1079Z" fill="#D8DEE9"/>
    <path fill-rule="evenodd" clip-rule="evenodd" d="M9.07741 10.1937C9.06841 10.243 9.04041 10.251 9.00966 10.2567C8.95741 10.2655 8.99666 10.2262 8.98816 10.2112C8.96616 10.1737 9.02166 10.181 9.02816 10.1565C9.04266 10.1755 9.07591 10.175 9.07741 10.1937Z" fill="#CBD2E3"/>
    <path fill-rule="evenodd" clip-rule="evenodd" d="M8.78501 8.5725C8.76751 8.58075 8.79077 8.6225 8.75327 8.6105C8.72477 8.60075 8.68977 8.58725 8.69227 8.55225C8.69327 8.53875 8.72727 8.5275 8.74627 8.51575C8.74952 8.541 8.80351 8.53275 8.78501 8.5725Z" fill="#D1D8E6"/>
    <path fill-rule="evenodd" clip-rule="evenodd" d="M10.1996 9.669C10.1526 9.6875 10.1739 9.64875 10.1656 9.6375C10.1341 9.59475 10.1964 9.601 10.1996 9.5755C10.2189 9.58825 10.2564 9.60275 10.2549 9.61375C10.2538 9.62804 10.2476 9.64147 10.2375 9.6516C10.2273 9.66174 10.2139 9.66791 10.1996 9.669Z" fill="#DADFEA"/>
    <path fill-rule="evenodd" clip-rule="evenodd" d="M7.78231 9.28748C7.78231 9.31648 7.84081 9.30498 7.82106 9.34123C7.81306 9.35598 7.83006 9.39548 7.78956 9.38723C7.75881 9.38098 7.72781 9.36298 7.72681 9.33248C7.72681 9.31823 7.76231 9.30298 7.78231 9.28748Z" fill="#CAD2E2"/>
    <path fill-rule="evenodd" clip-rule="evenodd" d="M8.58252 10.192C8.55952 10.1812 8.55852 10.151 8.56002 10.1365C8.56252 10.1172 8.58827 10.0912 8.61027 10.1017C8.62377 10.1082 8.66202 10.1045 8.65277 10.1395C8.64427 10.173 8.61077 10.1777 8.58252 10.192Z" fill="#D0D7E5"/>
    <path fill-rule="evenodd" clip-rule="evenodd" d="M9.5498 10.148C9.5508 10.1477 9.5683 10.1235 9.58805 10.123C9.6023 10.1225 9.6168 10.152 9.63205 10.1685C9.61155 10.1742 9.62905 10.212 9.58855 10.2115C9.55205 10.2107 9.55205 10.1942 9.5498 10.148Z" fill="#EFF2F6"/>
    <path fill-rule="evenodd" clip-rule="evenodd" d="M7.94152 9.51497C7.93477 9.54197 7.93477 9.55872 7.91077 9.55822C7.88627 9.55772 7.87427 9.54872 7.87477 9.52372C7.87477 9.50397 7.88777 9.49022 7.90252 9.49147C7.91952 9.49272 7.94377 9.49747 7.94152 9.51497Z" fill="#CCD4E3"/>
    <path fill-rule="evenodd" clip-rule="evenodd" d="M6.40849 9.12598C6.42049 9.13898 6.43424 9.14923 6.43949 9.16248C6.44399 9.17348 6.43699 9.19023 6.42149 9.19198C6.40424 9.19348 6.38574 9.19298 6.38024 9.17148C6.37524 9.15048 6.39349 9.14298 6.40849 9.12598Z" fill="#E0E5EE"/>
    <path fill-rule="evenodd" clip-rule="evenodd" d="M6.23174 9.31248C6.22499 9.28373 6.18049 9.30198 6.17749 9.26898C6.18699 9.29398 6.26124 9.23823 6.23174 9.31248Z" fill="#7085B1"/>
    <path fill-rule="evenodd" clip-rule="evenodd" d="M6.00496 8.2262C5.99946 8.19545 5.95221 8.2197 5.94971 8.18445C5.96296 8.20545 6.02996 8.1557 6.00496 8.2262Z" fill="#5C75A7"/>
    <path fill-rule="evenodd" clip-rule="evenodd" d="M8.77745 7.97897C8.7822 7.95997 8.79745 7.92897 8.79145 7.92322C8.70995 7.85072 8.8187 7.83847 8.83495 7.82372C8.8647 7.79497 8.85995 7.91622 8.93845 7.83947C8.8962 7.93322 8.8397 7.96022 8.7747 7.97622L8.77745 7.97897Z" fill="#E7EAF2"/>
    <path fill-rule="evenodd" clip-rule="evenodd" d="M6.36772 7.9012C6.28822 7.89345 6.35897 7.78995 6.34172 7.72995C6.32022 7.65245 6.37672 7.65345 6.43172 7.6532C6.51697 7.6527 6.56522 7.6887 6.56522 7.7787C6.56497 7.8672 6.52397 7.9022 6.36772 7.9012Z" fill="#15A24A"/>
    <path fill-rule="evenodd" clip-rule="evenodd" d="M9.4052 8.40074C9.3877 8.45424 9.32295 8.48774 9.31195 8.55374C9.31095 8.56249 9.28595 8.56074 9.2812 8.53524C9.2612 8.41574 9.2602 8.41599 9.17195 8.47999C9.16495 8.48524 9.1527 8.48999 9.14595 8.48774C9.13295 8.48199 9.1277 8.46899 9.13545 8.45424C9.1647 8.39724 9.1922 8.33874 9.22495 8.28349C9.24695 8.24699 9.2737 8.27749 9.2952 8.28799C9.34245 8.31124 9.4007 8.32449 9.4052 8.40074Z" fill="#13A248"/>
    <path fill-rule="evenodd" clip-rule="evenodd" d="M9.62888 8.59523C9.58288 8.61373 9.56063 8.57898 9.53113 8.56648C9.51113 8.55798 9.49238 8.54998 9.47888 8.57223C9.46413 8.59573 9.47888 8.60923 9.49913 8.61973C9.51463 8.62748 9.53113 8.63348 9.54263 8.64573C9.56288 8.66698 9.62638 8.66123 9.60063 8.70648C9.58038 8.74248 9.54638 8.70048 9.52388 8.68723C9.48513 8.66348 9.40838 8.65048 9.41663 8.60923C9.42938 8.54298 9.46713 8.47098 9.51738 8.42548C9.55763 8.38898 9.60213 8.45798 9.64738 8.47523C9.66688 8.48248 9.70013 8.48898 9.69438 8.51973C9.68888 8.55148 9.66538 8.53298 9.64738 8.52873C9.60513 8.51898 9.56413 8.44748 9.53088 8.49698C9.51088 8.52648 9.59313 8.53873 9.61913 8.57123C9.62313 8.57598 9.62413 8.58248 9.62888 8.59523ZM10.1676 8.94873C10.1751 9.00723 10.1514 9.04698 10.0901 9.03698C10.0266 9.02648 9.97838 8.98773 9.96738 8.91823C9.96638 8.91123 9.97488 8.89698 9.98188 8.89498C9.98591 8.89366 9.99018 8.89324 9.99439 8.89375C9.9986 8.89425 10.0026 8.89568 10.0062 8.89792C10.0098 8.90016 10.0129 8.90316 10.0152 8.90671C10.0175 8.91026 10.019 8.91428 10.0196 8.91848C10.0276 8.96623 10.0526 8.98748 10.1029 8.98848C10.1126 8.91023 9.97138 8.87448 10.0526 8.79323C10.0934 8.75248 10.1431 8.78623 10.1786 8.81898C10.2114 8.84873 10.2514 8.88148 10.1916 8.92398C10.1831 8.91948 10.1716 8.91223 10.1654 8.91723C10.1526 8.92573 10.1651 8.93798 10.1676 8.94873Z" fill="#11A147"/>
    <path fill-rule="evenodd" clip-rule="evenodd" d="M8.44087 8.20421C8.41112 8.18746 8.41262 8.17146 8.41737 8.15396C8.42687 8.11671 8.40762 8.09721 8.37362 8.08671C8.33962 8.07571 8.31337 8.07721 8.30412 8.11971C8.30087 8.13871 8.29087 8.15196 8.27012 8.14496C8.24612 8.13621 8.25812 8.11671 8.26262 8.10246C8.27212 8.06971 8.28062 8.03671 8.29562 8.00546C8.30912 7.97421 8.29962 7.91696 8.34887 7.92071C8.40112 7.92446 8.45762 7.93696 8.49737 7.98021C8.51512 7.99921 8.52237 8.03196 8.50787 8.04621C8.46562 8.08971 8.46912 8.15121 8.44087 8.20421Z" fill="#0FA046"/>
    <path fill-rule="evenodd" clip-rule="evenodd" d="M6.89814 7.88596C6.81739 7.91646 6.75364 7.89871 6.69139 7.89996C6.66314 7.90071 6.66064 7.87946 6.66064 7.85796C6.66231 7.83413 6.66298 7.8103 6.66264 7.78646C6.66564 7.65471 6.71239 7.62096 6.84189 7.65771C6.85639 7.66171 6.87014 7.66421 6.87114 7.68046C6.87114 7.70296 6.85489 7.70696 6.83489 7.70646C6.83206 7.7058 6.82889 7.70555 6.82539 7.70571C6.78664 7.71521 6.71714 7.67146 6.71589 7.72946C6.71439 7.77396 6.79014 7.74246 6.82889 7.75746C6.83406 7.75996 6.84073 7.76446 6.84889 7.77096C6.82439 7.81521 6.78364 7.79046 6.75214 7.79571C6.73339 7.79871 6.70889 7.79046 6.70614 7.82096C6.70264 7.85696 6.72764 7.85521 6.75214 7.85771C6.79389 7.86271 6.83914 7.84696 6.89814 7.88596Z" fill="#0B9F43"/>
    <path fill-rule="evenodd" clip-rule="evenodd" d="M6.23447 7.90498C6.19097 7.89548 6.19697 7.87048 6.18947 7.85298C6.17647 7.82073 6.15072 7.82073 6.12247 7.82298C6.09022 7.82598 6.07272 7.83848 6.07547 7.87423C6.07747 7.89173 6.08447 7.91998 6.05197 7.91598C6.02397 7.91248 6.03197 7.88523 6.03047 7.86673C6.02797 7.83648 6.02497 7.80548 6.02797 7.77548C6.03197 7.74198 5.99997 7.69073 6.04822 7.67873C6.09797 7.66573 6.15547 7.65648 6.20722 7.68123C6.22972 7.69198 6.24747 7.71823 6.23922 7.73948C6.22022 7.79298 6.23522 7.84723 6.23447 7.90498Z" fill="#079D3F"/>
    <path fill-rule="evenodd" clip-rule="evenodd" d="M5.70654 7.81998C5.71454 7.75223 5.74429 7.69723 5.81854 7.69973C5.88979 7.70198 5.92779 7.75148 5.92779 7.82273C5.92779 7.89348 5.89479 7.94223 5.81954 7.94173C5.74304 7.94123 5.71704 7.88573 5.70654 7.81998Z" fill="#15A24A"/>
    <path fill-rule="evenodd" clip-rule="evenodd" d="M10.466 9.08999C10.459 9.15724 10.4258 9.20799 10.349 9.21474C10.2783 9.22049 10.2408 9.17999 10.2353 9.11349C10.229 9.04624 10.295 8.98199 10.3623 8.98249C10.4213 8.98299 10.4645 9.02574 10.466 9.08999Z" fill="#11A147"/>
    <path fill-rule="evenodd" clip-rule="evenodd" d="M9.06236 8.30748C9.11886 8.35298 9.05036 8.38298 9.04786 8.42123C9.00086 8.39948 8.94211 8.40823 8.90411 8.36698C8.86361 8.32298 8.87111 8.27323 8.89761 8.22473C8.92686 8.17348 8.97186 8.15148 9.02711 8.17098C9.07761 8.18898 9.11536 8.22298 9.09086 8.28698C9.05211 8.29398 9.02036 8.24298 8.96586 8.27723C9.00211 8.29398 9.04561 8.27073 9.06236 8.30748Z" fill="#0C9F43"/>
    <path fill-rule="evenodd" clip-rule="evenodd" d="M7.70241 7.79249C7.66941 7.83124 7.64516 7.81624 7.62241 7.81674C7.60041 7.81674 7.57691 7.79849 7.54966 7.82124C7.57416 7.86124 7.63341 7.83549 7.65641 7.87524C7.65316 7.88099 7.65166 7.88874 7.64741 7.89274C7.61441 7.91874 7.56166 7.85574 7.54116 7.90774C7.52241 7.95249 7.57166 7.93699 7.59291 7.94449C7.61691 7.95399 7.64666 7.95049 7.67566 7.98299C7.60841 8.01249 7.52816 7.99874 7.50041 7.96624C7.45666 7.91499 7.48741 7.82399 7.52066 7.77849C7.55991 7.72474 7.63166 7.77724 7.70241 7.79249Z" fill="#19A44D"/>
    <path fill-rule="evenodd" clip-rule="evenodd" d="M8.12856 8.00997C8.07181 8.00397 8.00731 7.96397 7.99106 8.05747C7.99056 8.06047 7.97081 8.06472 7.96481 8.06072C7.95806 8.05697 7.95431 8.04297 7.95556 8.03497C7.97031 7.97572 7.97781 7.91222 8.00406 7.85897C8.03456 7.79897 8.08631 7.84972 8.12906 7.85547C8.18006 7.86222 8.20831 7.89322 8.20281 7.94697C8.19781 7.99322 8.16281 8.00572 8.12856 8.00997Z" fill="#0D9F44"/>
    <path fill-rule="evenodd" clip-rule="evenodd" d="M8.80479 8.15323C8.79929 8.22848 8.76229 8.28048 8.68704 8.28273C8.61979 8.28523 8.58204 8.23798 8.58354 8.17098C8.58554 8.09848 8.62079 8.04598 8.69904 8.04373C8.77079 8.04123 8.79854 8.08948 8.80479 8.15323Z" fill="#0FA046"/>
    <path fill-rule="evenodd" clip-rule="evenodd" d="M7.11969 7.8817C7.11144 7.89945 7.10469 7.9247 7.08094 7.91895C7.03969 7.9092 7.05819 7.86945 7.04819 7.84345C7.01769 7.8137 7.02569 7.8547 7.01619 7.8622C7.01269 7.8807 7.02119 7.90895 6.99619 7.9127C6.96544 7.91645 6.97269 7.88695 6.97344 7.86945C6.97594 7.83295 6.97644 7.7947 6.98644 7.7597C6.99519 7.7297 6.96344 7.67445 7.02319 7.67395C7.07594 7.6737 7.06444 7.72745 7.07119 7.7597C7.07819 7.7967 7.08194 7.81245 7.11219 7.7757C7.14344 7.76745 7.14994 7.7902 7.15719 7.8122C7.16119 7.8442 7.14694 7.86645 7.11969 7.8817Z" fill="#0EA044"/>
    <path fill-rule="evenodd" clip-rule="evenodd" d="M9.78229 8.8C9.80079 8.8 9.81954 8.8245 9.83754 8.8035C9.85129 8.78775 9.83904 8.77225 9.82679 8.7595C9.81746 8.75 9.80846 8.74017 9.79979 8.73C9.77429 8.69925 9.73854 8.66975 9.77379 8.62525C9.80579 8.5845 9.84304 8.5945 9.88004 8.62025C9.88679 8.63325 9.88454 8.64575 9.87754 8.6575C9.85029 8.70025 9.90104 8.72625 9.90004 8.76275C9.90779 8.797 9.91279 8.8315 9.87504 8.85125C9.82804 8.87625 9.79179 8.85325 9.75729 8.82325C9.75354 8.8035 9.76079 8.79375 9.78229 8.8Z" fill="#10A146"/>
    <path fill-rule="evenodd" clip-rule="evenodd" d="M9.06238 8.3075C9.04313 8.321 9.00438 8.27725 9.00563 8.31025C9.00813 8.36875 8.97888 8.3635 8.95163 8.34625C8.91488 8.3235 8.91288 8.2845 8.93613 8.2485C8.95863 8.21325 8.99038 8.19275 9.02888 8.2215C9.05238 8.23875 9.07013 8.26475 9.09038 8.287L9.06238 8.3075Z" fill="#ECF7F0"/>
    <path fill-rule="evenodd" clip-rule="evenodd" d="M7.13606 7.82247C7.12884 7.80698 7.12083 7.79188 7.11206 7.77722C7.12081 7.75497 7.12881 7.73247 7.13931 7.71097C7.14881 7.69072 7.16531 7.67947 7.18856 7.68697C7.21456 7.69572 7.21256 7.71572 7.21106 7.73672C7.20556 7.79788 7.20048 7.85905 7.19581 7.92022C7.15931 7.94347 7.15006 7.92222 7.14406 7.89072C7.13956 7.86797 7.15131 7.84347 7.13606 7.82247Z" fill="#17A34C"/>
    <path fill-rule="evenodd" clip-rule="evenodd" d="M9.90091 8.76247C9.87841 8.73947 9.85441 8.71772 9.83341 8.69322C9.80891 8.66422 9.81841 8.64647 9.85491 8.64172C9.90766 8.65347 9.93991 8.67897 9.92441 8.73947C9.91708 8.74714 9.90925 8.75481 9.90091 8.76247Z" fill="#D7EFE0"/>
    <path fill-rule="evenodd" clip-rule="evenodd" d="M9.92448 8.7395C9.90023 8.708 9.89373 8.663 9.85498 8.64175L9.88098 8.62C9.92298 8.64975 9.99973 8.66675 9.92448 8.7395Z" fill="#2BAB5B"/>
    <path fill-rule="evenodd" clip-rule="evenodd" d="M10.1677 8.94873C10.1644 8.94673 10.1602 8.94573 10.1587 8.94298C10.1387 8.90598 10.0724 8.87273 10.0949 8.83998C10.1232 8.80048 10.1527 8.84723 10.1682 8.88098C10.1752 8.89523 10.1837 8.90923 10.1917 8.92398C10.1834 8.93231 10.1754 8.94056 10.1677 8.94873Z" fill="#E6F5EC"/>
    <path fill-rule="evenodd" clip-rule="evenodd" d="M9.7823 8.8C9.77463 8.80784 9.7663 8.81567 9.7573 8.8235C9.7468 8.816 9.7323 8.81075 9.72555 8.8C9.7128 8.77575 9.6763 8.7435 9.71855 8.7245C9.75405 8.7075 9.75405 8.75275 9.76555 8.77475C9.7703 8.784 9.7763 8.79175 9.7823 8.8Z" fill="#29AA59"/>
    <path fill-rule="evenodd" clip-rule="evenodd" d="M7.13613 7.82245C7.17263 7.8367 7.15338 7.8672 7.15388 7.88995C7.15588 7.9212 7.16688 7.9317 7.19613 7.9207C7.13513 7.9797 7.14288 7.90095 7.11938 7.88345C7.12563 7.8627 7.13038 7.84245 7.13613 7.82245Z" fill="#DDF1E4"/>
    <path fill-rule="evenodd" clip-rule="evenodd" d="M7.01489 7.86248V7.78198C7.04939 7.79298 7.05039 7.81723 7.04689 7.84373L7.01489 7.86248Z" fill="#6FC690"/>
    <path fill-rule="evenodd" clip-rule="evenodd" d="M6.39185 7.77994C6.39535 7.74344 6.37785 7.69594 6.4401 7.69994C6.4856 7.70269 6.5186 7.72094 6.5211 7.77294C6.5236 7.82894 6.49085 7.85169 6.4391 7.85544C6.37335 7.86069 6.4001 7.80894 6.39185 7.77994Z" fill="#F5FBF7"/>
    <path fill-rule="evenodd" clip-rule="evenodd" d="M9.27488 8.32996C9.30088 8.34421 9.34063 8.34696 9.34913 8.38546C9.35338 8.40546 9.33613 8.41871 9.31838 8.41296C9.28538 8.40296 9.24164 8.40246 9.23714 8.35596C9.23589 8.34246 9.25038 8.32546 9.27488 8.32996Z" fill="#EFF8F3"/>
    <path fill-rule="evenodd" clip-rule="evenodd" d="M8.46404 8.02246C8.45729 8.04846 8.43904 8.05746 8.41804 8.04971C8.38979 8.03946 8.34429 8.05071 8.34379 8.00121C8.34279 7.97546 8.36029 7.96771 8.38379 7.97546C8.41479 7.98546 8.45229 7.98421 8.46404 8.02246Z" fill="#DEF2E5"/>
    <path fill-rule="evenodd" clip-rule="evenodd" d="M6.12863 7.71472C6.15313 7.71772 6.19188 7.70472 6.18938 7.74647C6.18688 7.78297 6.14988 7.77722 6.12338 7.77772C6.10213 7.77847 6.07163 7.78947 6.06963 7.75122C6.06813 7.70572 6.10363 7.71997 6.12863 7.71472Z" fill="#F3FAF5"/>
    <path fill-rule="evenodd" clip-rule="evenodd" d="M5.81231 7.74945C5.85756 7.75245 5.88006 7.77945 5.88181 7.82195C5.88431 7.85995 5.86556 7.89245 5.82656 7.89595C5.78156 7.9002 5.76131 7.86595 5.75881 7.8242C5.75631 7.7857 5.77131 7.7577 5.81231 7.74945Z" fill="#F3FAF6"/>
    <path fill-rule="evenodd" clip-rule="evenodd" d="M10.4163 9.09871C10.4098 9.14021 10.3848 9.16946 10.3365 9.16946C10.2978 9.16896 10.2833 9.14071 10.2873 9.10646C10.291 9.05996 10.3188 9.02996 10.366 9.03071C10.4033 9.03171 10.4178 9.05846 10.4163 9.09871Z" fill="#F9FCFA"/>
    <path fill-rule="evenodd" clip-rule="evenodd" d="M8.06996 7.88698C8.09521 7.90248 8.14596 7.88648 8.15321 7.93648C8.15546 7.95548 8.13446 7.96523 8.11771 7.96148C8.08496 7.95423 8.03921 7.96598 8.03521 7.91323C8.03446 7.89698 8.04171 7.87948 8.06996 7.88698Z" fill="#E7F5EC"/>
    <path fill-rule="evenodd" clip-rule="evenodd" d="M8.75483 8.15921C8.75008 8.20246 8.72883 8.23272 8.68508 8.23272C8.64208 8.23322 8.62683 8.20322 8.62883 8.16372C8.63233 8.12022 8.65708 8.09122 8.69933 8.08947C8.74133 8.08797 8.75483 8.12146 8.75483 8.15921Z" fill="#F5FBF7"/>
</svg>
